<?xml version="1.0" encoding="utf-8"?>
<!-- Generator: Adobe Illustrator 24.3.0, SVG Export Plug-In . SVG Version: 6.00 Build 0)  -->
<svg version="1.1" id="Слой_1" xmlns="http://www.w3.org/2000/svg" xmlns:xlink="http://www.w3.org/1999/xlink" x="0px" y="0px"
	 viewBox="0 0 21 22" style="enable-background:new 0 0 21 22;" xml:space="preserve">
<style type="text/css">
	.st0{clip-path:url(#SVGID_2_);}
	.st1{fill:#FFFFFF;}
	.st2{fill:#333333;}
</style>
<g>
	<defs>
		<rect id="SVGID_1_" width="20.9" height="22"/>
	</defs>
	<clipPath id="SVGID_2_">
		<use xlink:href="#SVGID_1_"  style="overflow:visible;"/>
	</clipPath>
	<g class="st0">
		<g>
			<circle class="st1" cx="11" cy="11" r="10"/>
		</g>
		<g>
			<path class="st2" d="M10.5,0C4.7,0,0,4.9,0,11s4.7,11,10.5,11c5.8,0,10.5-4.9,10.5-11S16.2,0,10.5,0z M10.5,21.3
				c-5.4,0-9.8-4.6-9.8-10.3c0-5.7,4.4-10.3,9.8-10.3c5.4,0,9.8,4.6,9.8,10.3C20.2,16.7,15.8,21.3,10.5,21.3z"/>
		</g>
		<g>
			<polygon class="st2" points="11.8,12.8 3,12.8 3,11.2 10.2,11.2 10.2,3 11.8,3 			"/>
		</g>
	</g>
</g>
</svg>
