<svg width="28" height="28" viewBox="0 0 28 28" fill="none" xmlns="http://www.w3.org/2000/svg">
<rect width="28" height="28" rx="12" transform="matrix(1 0 0 -1 0 28)" fill="white"/>
<g clip-path="url(#clip0)">
<path d="M23.2607 15.1565C23.8872 9.88283 22.9597 6.55346 21.2867 5.04758L21.2876 5.04671C18.5873 2.47508 9.46807 2.09446 6.23757 5.16221C4.78682 6.66283 4.27582 8.86521 4.21982 11.5917C4.16382 14.3191 4.09732 19.4282 8.85819 20.8142H8.86257L8.85819 22.9308C8.85819 22.9308 8.82582 23.7883 9.37357 23.9607C10.0001 24.1637 10.2836 23.7656 12.2322 21.4381C15.4907 21.7207 17.9932 21.0732 18.2776 20.9787C18.9356 20.7582 22.6587 20.2656 23.2607 15.1565ZM12.5533 19.9488C12.5533 19.9488 10.4909 22.5205 9.84957 23.1881C9.63957 23.4051 9.40944 23.385 9.41294 22.9545C9.41294 22.6718 9.42869 19.4405 9.42869 19.4405C5.39232 18.2837 5.63032 13.9332 5.67407 11.6573C5.71782 9.38058 6.13432 7.51596 7.36282 6.26033C10.1969 3.60296 18.1918 4.19708 20.2288 6.11158C22.7191 8.31921 21.8327 14.5562 21.8379 14.7688C21.3261 19.0336 18.3091 19.304 17.7543 19.4886C17.5172 19.5673 15.3166 20.1335 12.5533 19.9488Z" fill="#333333"/>
<path d="M13.6944 6.76001C13.3576 6.76001 13.3576 7.28501 13.6944 7.28938C16.3081 7.30951 18.4606 9.13126 18.4842 12.4729C18.4842 12.8255 19.0004 12.8211 18.9961 12.4685H18.9952C18.9672 8.86789 16.6169 6.78013 13.6944 6.76001Z" fill="#333333"/>
<path d="M17.1323 11.9189C17.1244 12.2672 17.6398 12.2838 17.6442 11.9312C17.6871 9.94578 16.4629 8.31041 14.1626 8.13803C13.8257 8.11353 13.7907 8.64291 14.1267 8.66741C16.1217 8.81878 17.1726 10.1803 17.1323 11.9189Z" fill="#333333"/>
<path d="M16.5811 14.1773C16.1488 13.9271 15.7087 14.0828 15.5267 14.3287L15.1461 14.8213C14.9527 15.0716 14.5913 15.0383 14.5913 15.0383C11.9541 14.341 11.2488 11.5812 11.2488 11.5812C11.2488 11.5812 11.2164 11.2076 11.4579 11.0072L11.9339 10.6135C12.1719 10.4245 12.3224 9.96947 12.0801 9.52234C11.4326 8.35247 10.9977 7.94909 10.7763 7.63934C10.5436 7.34797 10.1936 7.28234 9.82956 7.47922H9.82169C9.06481 7.92197 8.23619 8.75059 8.50131 9.60372C8.95369 10.5032 9.78494 13.3706 12.4344 15.5371C13.6796 16.5617 15.6501 17.6117 16.4866 17.8541L16.4944 17.8663C17.3187 18.1411 18.1202 17.2801 18.5481 16.5005V16.4943C18.7379 16.1172 18.6749 15.7602 18.3976 15.5266C17.9058 15.0471 17.1638 14.5177 16.5811 14.1773Z" fill="#333333"/>
<path d="M14.5231 10.0912C15.3639 10.1402 15.7717 10.5795 15.8154 11.4816C15.8312 11.8342 16.343 11.8097 16.3273 11.4571C16.2713 10.2793 15.6571 9.62309 14.5511 9.56184C14.2142 9.54171 14.1827 10.0711 14.5231 10.0912Z" fill="#333333"/>
</g>
<defs>
<clipPath id="clip0">
<rect width="21" height="21" fill="white" transform="translate(3 3)"/>
</clipPath>
</defs>
</svg>
