<svg width="28" height="28" viewBox="0 0 28 28" fill="none" xmlns="http://www.w3.org/2000/svg">
<rect width="28" height="28" rx="12" transform="matrix(1 0 0 -1 0 28)" fill="white"/>
<path fill-rule="evenodd" clip-rule="evenodd" d="M20.1231 8.07062C18.525 6.47832 16.3997 5.60103 14.1355 5.6001C9.46995 5.6001 5.67285 9.37892 5.67098 14.0234C5.67035 15.5081 6.06007 16.9574 6.80083 18.2349L5.59998 22.6001L10.0872 21.4286C11.3236 22.0999 12.7155 22.4536 14.1321 22.454H14.1356C18.8007 22.454 22.5982 18.6749 22.6 14.0302C22.6009 11.7792 21.7213 9.66281 20.1231 8.07062ZM14.1355 21.0314H14.1326C12.8702 21.0308 11.6322 20.6932 10.5518 20.0554L10.2951 19.9036L7.63229 20.5988L8.34302 18.0151L8.17569 17.7502C7.47142 16.6354 7.09953 15.3469 7.10015 14.0239C7.10161 10.1636 10.2577 7.02285 14.1383 7.02285C16.0175 7.02347 17.784 7.7527 19.1122 9.07615C20.4405 10.3996 21.1715 12.1588 21.1709 14.0296C21.1692 17.8903 18.0133 21.0314 14.1355 21.0314ZM17.9946 15.7874C17.7831 15.682 16.7432 15.173 16.5493 15.1026C16.3556 15.0324 16.2144 14.9974 16.0736 15.208C15.9325 15.4187 15.5273 15.8929 15.4038 16.0332C15.2804 16.1737 15.1572 16.1914 14.9456 16.086C14.7341 15.9806 14.0526 15.7583 13.2447 15.0412C12.6161 14.4831 12.1916 13.7938 12.0682 13.5832C11.9449 13.3723 12.0671 13.2694 12.161 13.1536C12.3899 12.8706 12.6192 12.574 12.6897 12.4336C12.7603 12.2931 12.7249 12.1702 12.6719 12.0648C12.6192 11.9595 12.1962 10.9235 12.02 10.5019C11.8482 10.0917 11.674 10.1471 11.5441 10.1406C11.4208 10.1345 11.2798 10.1333 11.1387 10.1333C10.9978 10.1333 10.7686 10.1859 10.5747 10.3967C10.3809 10.6074 9.83455 11.1166 9.83455 12.1526C9.83455 13.1887 10.5924 14.1895 10.6981 14.33C10.8038 14.4705 12.1895 16.5966 14.3111 17.5082C14.8157 17.7253 15.2096 17.8546 15.5169 17.9517C16.0235 18.1119 16.4845 18.0892 16.849 18.0351C17.2554 17.9746 18.1002 17.5258 18.2766 17.0342C18.4528 16.5425 18.4528 16.1211 18.3998 16.0332C18.3471 15.9455 18.206 15.8929 17.9946 15.7874Z" fill="#333333"/>
</svg>
