<svg width="32" height="32" viewBox="0 0 32 32" fill="none" xmlns="http://www.w3.org/2000/svg">
<rect width="31.1111" height="31.1111" rx="13.3333" transform="matrix(1 0 0 -1 0.88913 31.5557)" fill="#00793A"/>
<path fill-rule="evenodd" clip-rule="evenodd" d="M23.2483 9.41201C21.4726 7.6428 19.1112 6.66803 16.5954 6.66699C11.4114 6.66699 7.19244 10.8657 7.19035 16.0262C7.18966 17.6759 7.62268 19.2863 8.44574 20.7057L7.11147 25.5559L12.0972 24.2543C13.471 25.0001 15.0176 25.3931 16.5916 25.3936H16.5955C21.7789 25.3936 25.9984 21.1945 26.0004 16.0337C26.0014 13.5327 25.024 11.1811 23.2483 9.41201ZM16.5954 23.8128H16.5922C15.1895 23.8123 13.8139 23.4371 12.6135 22.7284L12.3282 22.5598L9.36959 23.3322L10.1593 20.4614L9.97337 20.1671C9.19085 18.9284 8.77763 17.4967 8.77833 16.0268C8.77995 11.7375 12.2867 8.24783 16.5985 8.24783C18.6865 8.24852 20.6492 9.05877 22.1251 10.5293C23.6009 11.9998 24.4132 13.9544 24.4125 16.0332C24.4106 20.3228 20.9041 23.8128 16.5954 23.8128ZM20.8832 17.9863C20.6483 17.8691 19.4929 17.3035 19.2774 17.2254C19.0622 17.1473 18.9053 17.1085 18.7488 17.3425C18.5921 17.5765 18.1418 18.1034 18.0046 18.2594C17.8675 18.4155 17.7306 18.4351 17.4955 18.3179C17.2605 18.2009 16.5033 17.9539 15.6056 17.1571C14.9071 16.537 14.4355 15.7711 14.2984 15.5371C14.1614 15.3028 14.2972 15.1884 14.4015 15.0598C14.6559 14.7454 14.9106 14.4158 14.9889 14.2598C15.0673 14.1037 15.0281 13.9671 14.9692 13.8501C14.9106 13.733 14.4406 12.5819 14.2448 12.1135C14.0539 11.6576 13.8604 11.7192 13.716 11.712C13.5791 11.7052 13.4224 11.7038 13.2656 11.7038C13.109 11.7038 12.8544 11.7623 12.6389 11.9966C12.4236 12.2307 11.8165 12.7964 11.8165 13.9476C11.8165 15.0987 12.6586 16.2108 12.7761 16.3669C12.8935 16.523 14.4332 18.8853 16.7905 19.8982C17.3512 20.1394 17.7888 20.2832 18.1302 20.391C18.6932 20.569 19.2054 20.5438 19.6103 20.4836C20.0619 20.4164 21.0006 19.9178 21.1966 19.3716C21.3924 18.8252 21.3924 18.357 21.3335 18.2594C21.2749 18.1618 21.1182 18.1034 20.8832 17.9863Z" fill="white"/>
</svg>
